<svg width="22" height="21" viewBox="0 0 22 21" fill="none" xmlns="http://www.w3.org/2000/svg">
<path d="M1 1H5.11076L8.69115 13.5638H18.2066L20.9305 5.60027C20.9969 5.40601 21.0161 5.19873 20.9865 4.99557C20.9569 4.79242 20.8793 4.59924 20.7602 4.43201C20.6412 4.26478 20.484 4.1283 20.3017 4.03388C20.1194 3.93945 19.9172 3.88979 19.7119 3.88899L5.91833 3.84813" stroke="#151515" stroke-width="1.7" stroke-linecap="round" stroke-linejoin="round"/>
<path d="M9.52758 19.6526C10.6209 19.6526 11.5073 18.7663 11.5073 17.673C11.5073 16.5796 10.6209 15.6933 9.52758 15.6933C8.43424 15.6933 7.54791 16.5796 7.54791 17.673C7.54791 18.7663 8.43424 19.6526 9.52758 19.6526Z" stroke="#151515" stroke-width="1.7" stroke-linecap="round" stroke-linejoin="round"/>
<path d="M17.0192 19.6526C18.1125 19.6526 18.9988 18.7663 18.9988 17.673C18.9988 16.5796 18.1125 15.6933 17.0192 15.6933C15.9259 15.6933 15.0396 16.5796 15.0396 17.673C15.0396 18.7663 15.9259 19.6526 17.0192 19.6526Z" stroke="#151515" stroke-width="1.7" stroke-linecap="round" stroke-linejoin="round"/>
</svg>
