<svg xmlns="http://www.w3.org/2000/svg" width="16" height="16" viewBox="0 0 16 16">
  <metadata><?xpacket begin="﻿" id="W5M0MpCehiHzreSzNTczkc9d"?>
<x:xmpmeta xmlns:x="adobe:ns:meta/" x:xmptk="Adobe XMP Core 5.6-c140 79.160451, 2017/05/06-01:08:21        ">
   <rdf:RDF xmlns:rdf="http://www.w3.org/1999/02/22-rdf-syntax-ns#">
      <rdf:Description rdf:about=""/>
   </rdf:RDF>
</x:xmpmeta>
                                                                                                    
                                                                                                    
                                                                                                    
                                                                                                    
                                                                                                    
                                                                                                    
                                                                                                    
                                                                                                    
                                                                                                    
                                                                                                    
                                                                                                    
                                                                                                    
                                                                                                    
                                                                                                    
                                                                                                    
                                                                                                    
                                                                                                    
                                                                                                    
                                                                                                    
                                                                                                    
                           
<?xpacket end="w"?></metadata>
<defs>
    <style>
      .cls-1 {
        fill: #151515;
        fill-rule: evenodd;
      }
    </style>
  </defs>
  <path id="Language" class="cls-1" d="M948.008,593.005a8,8,0,1,0,8,8A8,8,0,0,0,948.008,593.005Zm0.6,13.74a4.006,4.006,0,0,1,1.215-2.54c1.512-1.559.359-2.367-1.1-2.564s-2.475.385-2.834-.588a1.038,1.038,0,0,1,.5-1.461c0.217-.07.634-0.3,1.31,0.512,0.284,0.283.669,0.33,0.661-.025s-0.45-1.071.028-1.634,1.571-.845,1.522-1.68a1.132,1.132,0,0,0-1.6-.966c-0.843.22-1.3,0.384-1.536-.338-0.054-.161-0.1-0.319-0.136-0.468a0.339,0.339,0,0,1,.268-0.417,6.341,6.341,0,0,1,1.1-.1,6.526,6.526,0,0,1,5.957,3.858,1.34,1.34,0,0,1-.911,1.856l-0.017,0c-1,.227-1.478.626-0.344,1.588,0.271,0.18.564,0.356,0.836,0.563a1.2,1.2,0,0,1,.359,1.48,6.527,6.527,0,0,1-4.421,3.53,0.708,0.708,0,0,1-.857-0.613h0ZM945.463,595a0.228,0.228,0,0,1,.3.114c0.1,0.234-.1.517-0.965,1.186a2.6,2.6,0,0,0-1.062,2.951c0.21,1.393,1.032,1.435,1.548,2.489s0.047,1.95.834,3.761c0.345,0.723.789,1.175,0.971,1.538a0.261,0.261,0,0,1-.283.374A6.519,6.519,0,0,1,945.463,595Z" transform="translate(-940 -593)"/>
</svg>
