<svg width="16" height="16" viewBox="0 0 16 16" fill="none" xmlns="http://www.w3.org/2000/svg">
<rect width="16" height="16" fill="white"/>
<path fill-rule="evenodd" clip-rule="evenodd" d="M14.1627 15.9948H13.9926C13.4927 16.0008 13.0636 15.6503 12.9796 15.1652C12.6001 13.1144 10.9767 11.5105 8.89697 11.1399C6.14521 10.6488 3.51084 12.4516 3.0119 15.1652C3.01089 15.1672 3.01089 15.1713 3.01089 15.1743C2.91373 15.7176 2.38746 16.0802 1.83792 15.9848C1.83185 15.9838 1.8278 15.9828 1.82274 15.9807C1.27623 15.8793 0.912905 15.3571 1.01816 14.8157C1.61932 11.4713 4.55325 9.02482 7.99321 8.99067C11.4504 9.0208 14.3873 11.4804 14.9845 14.8338C14.9845 14.8358 14.9845 14.8358 14.9845 14.8358C15.0816 15.3802 14.7132 15.8984 14.1627 15.9948ZM7.99321 7.99238C5.75759 7.99238 3.94501 6.20268 3.94501 3.99719C3.94501 1.78869 5.75759 0 7.99321 0C10.2339 0 12.0465 1.78869 12.0465 3.99719C12.0465 6.20268 10.2339 7.99238 7.99321 7.99238ZM7.99321 1.9986C6.87692 1.9986 5.96911 2.89144 5.96911 3.99719C5.96911 5.09994 6.87692 5.99479 7.99321 5.99479C9.11153 5.99479 10.0203 5.09994 10.0203 3.99719C10.0203 2.89144 9.11153 1.9986 7.99321 1.9986Z" fill="#151515"/>
</svg>
